<?xml version="1.0" standalone="no"?>
<!DOCTYPE svg PUBLIC "-//W3C//DTD SVG 20010904//EN"
 "http://www.w3.org/TR/2001/REC-SVG-20010904/DTD/svg10.dtd">
<svg version="1.0" xmlns="http://www.w3.org/2000/svg"
 width="512.000000pt" height="512.000000pt" viewBox="0 0 512.000000 512.000000"
 preserveAspectRatio="xMidYMid meet">
<metadata>
Created by potrace 1.11, written by Peter Selinger 2001-2013
</metadata>
<g transform="translate(0.000000,512.000000) scale(0.100000,-0.100000)"
fill="#000000" stroke="none">
<path d="M2378 4955 c-2 -1 -39 -5 -82 -9 -44 -4 -82 -8 -85 -10 -3 -2 -31 -7
-61 -11 -241 -29 -647 -174 -865 -309 -28 -17 -59 -35 -68 -41 -179 -108 -459
-363 -595 -542 -192 -253 -309 -498 -386 -803 -152 -606 -13 -1260 377 -1775
74 -97 108 -135 213 -240 73 -72 108 -104 208 -185 l31 -25 -1 -417 c0 -233 3
-418 8 -418 5 0 32 13 61 29 29 15 208 114 398 219 l345 191 55 -14 c52 -15
228 -49 299 -59 233 -34 609 -20 828 29 34 8 75 17 92 20 16 3 82 21 147 41
911 276 1558 1036 1639 1924 17 191 5 415 -32 595 -50 242 -148 493 -261 673
-18 29 -33 56 -33 61 0 5 -3 11 -7 13 -5 2 -21 23 -38 48 -153 228 -411 476
-650 625 -44 28 -89 56 -100 62 -39 25 -191 101 -255 128 -207 88 -454 156
-650 181 -30 3 -64 8 -75 11 -22 5 -451 13 -457 8z m322 -2005 c85 -90 172
-181 192 -202 l38 -40 322 180 c178 99 346 192 373 207 28 15 81 45 118 66 38
22 70 39 72 39 2 0 43 23 92 51 139 80 175 100 178 97 2 -2 -36 -44 -83 -94
-78 -82 -251 -267 -326 -348 -15 -17 -60 -65 -100 -107 -39 -41 -100 -106
-136 -145 -36 -38 -128 -137 -205 -219 -77 -82 -171 -183 -210 -224 -38 -41
-106 -113 -150 -159 l-79 -83 -46 48 c-115 124 -276 297 -290 313 -8 9 -73 78
-144 153 l-129 137 -31 -19 c-17 -10 -60 -34 -96 -53 -36 -20 -85 -47 -110
-60 -56 -32 -323 -179 -410 -226 -36 -19 -78 -43 -95 -52 -16 -9 -57 -32 -90
-50 -123 -67 -261 -143 -305 -168 l-45 -25 41 44 c22 24 68 73 102 109 33 36
77 83 98 105 20 22 89 96 154 165 65 69 133 141 151 161 19 20 84 90 145 155
61 66 126 135 144 154 18 19 60 64 94 100 176 188 308 329 338 362 l33 37 120
-123 c66 -68 190 -197 275 -286z"/>
</g>
</svg>
